# AST/ASF file generated using VICON BodyLanguage
# -----------------------------------------------
:version 1.10
:name VICON
:units
  mass 1.0
  length 0.45
  angle deg
:documentation
   .ast/.asf automatically generated from VICON data using
   VICON BodyBuilder and BodyLanguage model FoxedUp or BRILLIANT.MOD
:root
   order TX TY TZ RX RY RZ
   axis XYZ
   position 0 0 0  
   orientation 0 0 0 
:bonedata
  begin
     id 1 
     name lhipjoint
     direction 0.589753 -0.68606 0.426044 
     length 2.54082 
     axis 0 0 0  XYZ
  end
  begin
     id 2 
     name lfemur
     direction 0.34202 -0.939693 0  
     length 7.04539  
     axis 0 0 20  XYZ
    dof rx ry rz
    limits (-160.0 20.0)
           (-70.0 70.0)
           (-60.0 70.0)
  end
  begin
     id 3 
     name ltibia
     direction 0.34202 -0.939693 0   
     length 7.83772   
     axis 0 0 20   XYZ
    dof rx
    limits (-10.0 170.0)
  end
  begin
     id 4 
     name lfoot
     direction 0.0596604 -0.163915 0.984669   
     length 2.39542   
     axis -90 7.62852e-016 20   XYZ
    dof rx rz
    limits (-45.0 90.0)
           (-70.0 20.0)
  end
  begin
     id 5 
     name ltoes
     direction 1.53514e-011 -4.21954e-011 1   
     length 1.2047   
     axis -90 7.62852e-016 20   XYZ
    dof rx
    limits (-90.0 20.0)
  end
  begin
     id 6 
     name rhipjoint
     direction -0.580585 -0.69168 0.429534   
     length 2.52018  
     axis 0 0 0  XYZ 
  end
  begin
     id 7 
     name rfemur
     direction -0.34202 -0.939693 0   
     length 7.0101   
     axis 0 0 -20   XYZ
    dof rx ry rz
    limits (-160.0 20.0)
           (-70.0 70.0)
           (-70.0 60.0)
  end
  begin
     id 8 
     name rtibia
     direction -0.34202 -0.939693 0   
     length 7.70628   
     axis 0 0 -20   XYZ
    dof rx
    limits (-10.0 170.0)
 end
 begin
     id 9 
     name rfoot
     direction -0.0696237 -0.19129 0.979061   
     length 2.52466  
     axis -90 -7.62852e-016 -20   XYZ
    dof rx rz
    limits (-45.0 90.0)
           (-20.0 70.0)
  end
  begin
     id 10 
     name rtoes
     direction -1.53519e-011 -4.21793e-011 1   
     length 1.266   
     axis -90 -7.62852e-016 -20   XYZ
    dof rx
    limits (-90.0 20.0)
  end
  begin
     id 11 
     name lowerback
     direction 0.00381965 0.995707 -0.0924856   
     length 2.20825   
     axis 0 0 0   XYZ
    dof rx ry rz
    limits (-20.0 45.0)
           (-30.0 30.0)
           (-30.0 30.0)
  end
  begin
     id 12 
     name upperback
     direction -0.0139043 0.999634 -0.0231929   
     length 2.21517   
     axis 0 0 0   XYZ
    dof rx ry rz
    limits (-20.0 45.0)
           (-30.0 30.0)
           (-30.0 30.0)
  end
  begin
     id 13 
     name thorax
     direction -0.0143933 0.999691 0.0202892   
     length 2.22911   
     axis 0 0 0   XYZ
    dof rx ry rz
    limits (-20.0 45.0)
           (-30.0 30.0)
           (-30.0 30.0)
  end
  begin
     id 14 
     name lowerneck
     direction -0.0251153 0.981819 0.188153   
     length 1.61782   
     axis 0 0 0   XYZ
    dof rx ry rz
    limits (-20.0 45.0)
           (-30.0 30.0)
           (-30.0 30.0)
  end
  begin
     id 15 
     name upperneck
     direction 0.0563891 0.969357 -0.239095   
     length 1.64526   
     axis 0 0 0   XYZ
    dof rx ry rz
    limits (-20.0 45.0)
           (-30.0 30.0)
           (-30.0 30.0)
  end
  begin
     id 16
     name head
     direction 0.0208328 0.99459 -0.101773  
     length 1.67436  
     axis 0 0 0   XYZ
    dof rx ry rz
    limits (-20.0 45.0)
           (-30.0 30.0)
           (-30.0 30.0)
  end
  begin
     id 17 
     name lclavicle
     direction 0.917689 0.397224 0.00772059  
     length 3.31102  
     axis 0 0 0   XYZ
    dof ry rz
    limits (-20.0 10.0)
           (0.0 20.0)
  end
  begin
     id 18 
     name lhumerus
     direction 1 -4.4896e-011 2.32308e-027   
     length 5.25537   
     axis 180 -30 -90   XYZ
    dof rx ry rz
    limits (-60.0 90.0)
           (-90.0 90.0)
           (-90.0 90.0)
  end
  begin
     id 19
     name lradius
     direction 1 -4.49005e-011 -2.04271e-027   
     length 3.38855   
     axis 180 -30 -90   XYZ
    dof rx
    limits (-10.0 170.0)
  end
  begin
     id 20
     name lwrist
     direction 1 -4.48892e-011 2.56952e-028   
     length 1.69428   
     axis -5.12785e-016 90 90   XYZ
    dof ry
    limits (-180.0 0.0)
 end
  begin
     id 21 
     name lhand
     direction 1 -4.48966e-011 5.13905e-028   
     length 0.614516   
     axis -3.27915e-016 90 90   XYZ
    dof rx rz
    limits (-90.0 90.0)
           (-45.0 45.0)
  end
  begin
     id 22 
     name lfingers
     direction 1 -4.48979e-011 1.02781e-027   
     length 0.495439   
     axis -6.5583e-016 90 90   XYZ
    dof rx
    limits (0.0 90.0)
  end
  begin
     id 23
     name lthumb
     direction 0.707107 -6.35001e-011 0.707107   
     length 0.711354   
     axis -90 45 2.85299e-015   XYZ
    dof rx rz
    limits (-45.0 45.0)
           (-45.0 45.0)
  end
  begin
     id 24 
     name rclavicle
     direction -0.938556 0.342765 -0.0403177   
     length 3.27019  
     axis 0 0 0   XYZ 
    dof ry rz
    limits (-10.0 20.0)
           (-20.0 0.0)
  end
  begin
     id 25 
     name rhumerus
     direction -1 -4.48966e-011 2.52291e-027  
     length 5.38183   
     axis 180 30 90   XYZ
    dof rx ry rz
    limits (-90.0 60.0)
           (-90.0 90.0)
           (-90.0 90.0)
  end
  begin
     id 26 
     name rradius
     direction -1 -4.4896e-011 1.5797e-027   
     length 3.16988   
     axis 180 30 90   XYZ
    dof rx
    limits (-10.0 170.0)
  end
  begin
     id 27 
     name rwrist
     direction -1 -4.48947e-011 2.56952e-028   
     length 1.58494   
     axis -5.12785e-016 -90 -90   XYZ
    dof ry
    limits (-180.0 0.0)
  end
  begin
     id 28
     name rhand
     direction -1 -4.49098e-011 5.13905e-028   
     length 0.637679   
     axis -3.27915e-016 -90 -90   XYZ
    dof rx rz
    limits (-90.0 90.0)
           (-45.0 45.0)
  end
  begin
     id 29
     name rfingers
     direction -1 -4.49026e-011 1.02781e-027   
     length 0.514113   
     axis -6.5583e-016 -90 -90   XYZ
    dof rx
    limits (0.0 90.0)
  end
  begin
     id 30
     name rthumb
     direction -0.707107 -6.3491e-011 0.707107   
     length 0.738167   
     axis -90 -45 -2.85299e-015   XYZ
    dof rx rz
    limits (-45.0 45.0)
           (-45.0 45.0)
  end
:hierarchy
  begin
    root lhipjoint rhipjoint lowerback
    lhipjoint lfemur
    lfemur ltibia
    ltibia lfoot
    lfoot ltoes
    rhipjoint rfemur
    rfemur rtibia
    rtibia rfoot
    rfoot rtoes
    lowerback upperback
    upperback thorax
    thorax lowerneck lclavicle rclavicle
    lowerneck upperneck
    upperneck head
    lclavicle lhumerus
    lhumerus lradius
    lradius lwrist
    lwrist lhand lthumb
    lhand lfingers
    rclavicle rhumerus
    rhumerus rradius
    rradius rwrist
    rwrist rhand rthumb
    rhand rfingers
  end

#!OML:ASF H:\Swim\Project 1\Capture day 1\Session 1\swimmer.ASF
:FULLY-SPECIFIED
:DEGREES
802
root 4.1383 12.0475 7.24803 62.7458 -0.687408 5.33979
lowerback 5.3458 -1.19788 -0.846932
upperback 0.967293 -1.66957 -1.58772
thorax -2.02414 -0.826893 -1.03957
lowerneck -28.1068 -4.49945 -6.45584
upperneck 26.9295 -5.44846 5.80836
head 14.2849 -2.142 2.34232
rclavicle 3.37934e-015 -3.8763e-015
rhumerus -52.4476 21.1069 -84.1786
rradius 77.7622
rwrist 29.2047
rhand -55.3089 -92.7097
rfingers 7.12502
rthumb -27.6756 64.7259
lclavicle 3.37934e-015 -3.8763e-015
lhumerus -53.8682 -16.2443 85.3287
lradius 75.9864
lwrist -42.2394
lhand -67.1452 86.8484
lfingers 7.12502
lthumb -38.9238 247.61
rfemur -16.7297 12.8989 16.867
rtibia 35.5212
rfoot -25.7174 -17.2685
rtoes -16.6903
lfemur -22.3839 -10.615 -19.3715
ltibia 35.1803
lfoot -16.023 8.58569
ltoes -18.0155
803
root 4.13493 12.0287 7.26143 62.9748 -0.648973 5.33838
lowerback 5.35588 -1.18158 -0.780162
upperback 0.905108 -1.64552 -1.57376
thorax -2.09489 -0.815421 -1.06335
lowerneck -28.0507 -4.58231 -6.64751
upperneck 26.8025 -5.55809 6.04552
head 14.2435 -2.17569 2.44706
rclavicle 6.75868e-015 7.45443e-016
rhumerus -52.9191 20.8287 -84.2282
rradius 78.0453
rwrist 29.4368
rhand -55.3012 -93.2121
rfingers 7.12502
rthumb -27.6682 65.227
lclavicle 6.75868e-015 7.45443e-016
lhumerus -54.1723 -16.1832 85.3754
lradius 76.1813
lwrist -42.1696
lhand -67.1207 86.556
lfingers 7.12502
lthumb -38.9007 247.896
rfemur -16.664 12.7699 16.8567
rtibia 35.4694
rfoot -25.2057 -17.221
rtoes -16.5829
lfemur -22.5025 -10.7293 -19.3125
ltibia 35.1323
lfoot -16.1505 8.81885
ltoes -18.2449
804
root 4.13181 12.0107 7.27565 63.2328 -0.618334 5.34062
lowerback 5.33601 -1.15899 -0.712038
upperback 0.827224 -1.61317 -1.57181
thorax -2.16528 -0.800013 -1.10131
lowerneck -27.9919 -4.65434 -6.77996
upperneck 26.6947 -5.66233 6.23109
head 14.2059 -2.20835 2.52209
rclavicle -4.17448e-015 -8.94531e-015
rhumerus -53.3958 20.5329 -84.2872
rradius 78.3049
rwrist 29.6722
rhand -55.2904 -93.7411
rfingers 7.12502
rthumb -27.6579 65.7544
lclavicle -4.17448e-015 -8.94531e-015
lhumerus -54.4832 -16.1342 85.4101
lradius 76.3677
lwrist -42.1184
lhand -67.095 86.0674
lfingers 7.12502
lthumb -38.8764 248.377
rfemur -16.6278 12.6088 16.8314
rtibia 35.4128
rfoot -24.8016 -17.2012
rtoes -16.6142
lfemur -22.6544 -10.8398 -19.2557
ltibia 35.0786
lfoot -16.2646 9.04269
ltoes -18.4508
805
root 4.12872 11.9927 7.28994 63.4842 -0.595373 5.34886
lowerback 5.32147 -1.13942 -0.653146
upperback 0.749779 -1.58551 -1.57524
thorax -2.23812 -0.786951 -1.13925
lowerneck -27.9558 -4.69647 -6.83014
upperneck 26.6247 -5.72619 6.31331
head 14.1789 -2.22968 2.54982
rclavicle 5.66536e-015 -3.926e-015
rhumerus -53.8535 20.2535 -84.3498
rradius 78.5387
rwrist 29.8879
rhand -55.2609 -94.2422
rfingers 7.12502
rthumb -27.6296 66.2509
lclavicle 5.66536e-015 -3.926e-015
lhumerus -54.794 -16.058 85.4288
lradius 76.5458
lwrist -42.1075
lhand -67.0662 85.4524
lfingers 7.12502
lthumb -38.8493 248.985
rfemur -16.5862 12.4365 16.8013
rtibia 35.3597
rfoot -24.5006 -17.2249
rtoes -16.757
lfemur -22.7944 -10.9651 -19.208
ltibia 35.0144
lfoot -16.3738 9.26934
ltoes -18.6112
806
root 4.12545 11.975 7.30508 63.7695 -0.600577 5.36092
lowerback 5.26917 -1.11734 -0.620773
upperback 0.657764 -1.55611 -1.59257
thorax -2.30442 -0.772996 -1.17735
lowerneck -27.9252 -4.70501 -6.78029
upperneck 26.5895 -5.74847 6.2778
head 14.1562 -2.23963 2.5218
rclavicle -8.54774e-015 -3.8763e-015
rhumerus -54.3069 19.9839 -84.4252
rradius 78.7511
rwrist 30.0838
rhand -55.2144 -94.7189
rfingers 7.12502
rthumb -27.5852 66.7205
lclavicle -8.54774e-015 -3.8763e-015
lhumerus -55.1199 -15.9652 85.4278
lradius 76.7098
lwrist -42.1736
lhand -67.0372 85.0979
lfingers 7.12502
lthumb -38.822 249.331
rfemur -16.5894 12.2753 16.7373
rtibia 35.3138
rfoot -24.2908 -17.2672
rtoes -16.8832
lfemur -22.9655 -11.1013 -19.1785
ltibia 34.9379
lfoot -16.479 9.50822
ltoes -18.7351
